<svg width="94" height="74" viewBox="0 0 94 74" fill="none" xmlns="http://www.w3.org/2000/svg">
<g id="logo">
<g id="Vector">
<path fill-rule="evenodd" clip-rule="evenodd" d="M65.8 34.5333H51.7V61.6667C51.7 64.9377 50.4621 68.0747 48.2585 70.3876C46.055 72.7006 43.0663 74 39.95 74C36.8337 74 33.845 72.7006 31.6415 70.3876C29.4379 68.0747 28.2 64.9377 28.2 61.6667C28.2 58.3957 29.4379 55.2586 31.6415 52.9457C33.845 50.6327 36.8337 49.3333 39.95 49.3333C42.629 49.3333 45.026 50.2707 47 51.8V24.6667H65.8V34.5333Z" fill="url(#paint0_linear_0_24)"/>
<path d="M64.9861 3.75528C59.2838 1.27604 53.1721 0 47 0C34.5348 0 22.5802 5.1976 13.766 14.4494C4.95177 23.7012 0 36.2493 0 49.3333H9.4C9.4 38.8661 13.3614 28.8276 20.4128 21.4262C27.4642 14.0248 37.0279 9.86667 47 9.86667C56.9721 9.86667 66.5359 14.0248 73.5872 21.4262C80.6386 28.8276 84.6 38.8661 84.6 49.3333H94C94 42.8548 92.7843 36.4397 90.4223 30.4543C88.0604 24.4689 84.5984 19.0304 80.234 14.4494C75.8697 9.86838 70.6884 6.23451 64.9861 3.75528Z" fill="url(#paint1_linear_0_24)"/>
</g>
</g>
<defs>
<linearGradient id="paint0_linear_0_24" x1="-9.4" y1="19.7333" x2="172.005" y2="134.95" gradientUnits="userSpaceOnUse">
<stop stop-color="#FF2525"/>
<stop offset="1" stop-color="#FF2525" stop-opacity="0"/>
</linearGradient>
<linearGradient id="paint1_linear_0_24" x1="-9.4" y1="19.7333" x2="172.005" y2="134.95" gradientUnits="userSpaceOnUse">
<stop stop-color="#FF2525"/>
<stop offset="1" stop-color="#FF2525" stop-opacity="0"/>
</linearGradient>
</defs>
</svg>
