<svg width="36" height="37" viewBox="0 0 36 37" fill="none" xmlns="http://www.w3.org/2000/svg">
<g id="notification">
<path id="Vector" d="M31.5 10C31.5 12.895 29.145 15.25 26.25 15.25C23.355 15.25 21 12.895 21 10C21 7.10501 23.355 4.75001 26.25 4.75001C29.145 4.75001 31.5 7.10501 31.5 10ZM28.5 17.935C27.75 18.13 27 18.25 26.25 18.25C24.0632 18.246 21.9671 17.3756 20.4207 15.8293C18.8744 14.2829 18.004 12.1868 18 10C18 7.79501 18.87 5.80001 20.25 4.31501C19.9778 3.98132 19.6346 3.71256 19.2453 3.52832C18.8561 3.34408 18.4306 3.249 18 3.25001C16.35 3.25001 15 4.60001 15 6.25001V6.68501C10.545 8.00501 7.5 12.1 7.5 16.75V25.75L4.5 28.75V30.25H31.5V28.75L28.5 25.75V17.935ZM18 34.75C19.665 34.75 21 33.415 21 31.75H15C15 32.5457 15.3161 33.3087 15.8787 33.8713C16.4413 34.4339 17.2044 34.75 18 34.75Z" fill="black"/>
</g>
</svg>
