<svg width="284" height="210" viewBox="0 0 284 210" fill="none" xmlns="http://www.w3.org/2000/svg">
<path d="M210.849 179.192C209.04 116.57 215.463 87.7829 250.804 111.398" stroke="black" stroke-width="3"/>
<circle cx="260.5" cy="118.5" r="12.5" fill="#FFDAA7"/>
<circle cx="260.5" cy="118.5" r="8.5" fill="#FF9F00"/>
<path d="M0.97692 39.3726C0.314744 39.8704 0.181477 40.8107 0.679274 41.4729L8.79136 52.2638C9.28916 52.926 10.2295 53.0593 10.8917 52.5615C11.5539 52.0637 11.6872 51.1233 11.1893 50.4611L3.9786 40.8692L13.5705 33.6584C14.2327 33.1606 14.366 32.2203 13.8682 31.5581C13.3704 30.8959 12.43 30.7627 11.7678 31.2605L0.97692 39.3726ZM213.344 183.754C202.831 135.28 186.558 104.126 154.406 82.5951C122.389 61.155 74.8054 49.3914 2.08873 39.0864L1.66779 42.0567C74.4072 52.3649 121.352 64.0712 152.737 85.0878C183.985 106.013 199.984 136.303 210.412 184.389L213.344 183.754Z" fill="black"/>
<rect x="227" y="134" width="57" height="76" fill="#F5F5F5"/>
<line x1="231" y1="174" x2="281" y2="174" stroke="black"/>
<line x1="238" y1="179.5" x2="273" y2="179.5" stroke="black"/>
<line x1="246" y1="184.5" x2="266" y2="184.5" stroke="black"/>
<path d="M240.538 156.617C240.491 156.183 240.296 155.845 239.951 155.603C239.61 155.361 239.165 155.24 238.619 155.24C238.234 155.24 237.904 155.298 237.629 155.414C237.354 155.53 237.144 155.687 236.998 155.886C236.852 156.085 236.777 156.312 236.774 156.567C236.774 156.78 236.822 156.964 236.918 157.119C237.018 157.275 237.152 157.408 237.321 157.517C237.49 157.623 237.677 157.713 237.883 157.786C238.088 157.858 238.295 157.92 238.504 157.969L239.459 158.208C239.843 158.298 240.213 158.419 240.567 158.571C240.925 158.723 241.245 158.916 241.527 159.148C241.812 159.38 242.037 159.66 242.203 159.988C242.369 160.316 242.452 160.701 242.452 161.141C242.452 161.738 242.299 162.263 241.994 162.717C241.689 163.168 241.249 163.521 240.672 163.776C240.098 164.028 239.404 164.154 238.589 164.154C237.797 164.154 237.109 164.031 236.526 163.786C235.946 163.541 235.491 163.183 235.163 162.712C234.839 162.242 234.663 161.668 234.636 160.992H236.451C236.477 161.347 236.587 161.642 236.779 161.877C236.971 162.112 237.222 162.288 237.53 162.404C237.841 162.52 238.189 162.578 238.574 162.578C238.975 162.578 239.326 162.518 239.628 162.399C239.933 162.277 240.171 162.107 240.344 161.892C240.516 161.673 240.604 161.418 240.607 161.126C240.604 160.861 240.526 160.643 240.374 160.47C240.221 160.295 240.007 160.149 239.732 160.033C239.46 159.913 239.142 159.807 238.778 159.714L237.619 159.416C236.781 159.201 236.118 158.874 235.631 158.437C235.147 157.996 234.905 157.411 234.905 156.682C234.905 156.082 235.067 155.557 235.392 155.106C235.72 154.655 236.166 154.305 236.729 154.057C237.293 153.805 237.931 153.679 238.643 153.679C239.366 153.679 239.999 153.805 240.543 154.057C241.089 154.305 241.519 154.652 241.83 155.096C242.142 155.537 242.303 156.044 242.312 156.617H240.538ZM247.347 164.149C246.585 164.149 245.931 163.982 245.384 163.647C244.84 163.312 244.421 162.85 244.126 162.26C243.834 161.667 243.688 160.984 243.688 160.212C243.688 159.436 243.838 158.752 244.136 158.158C244.434 157.562 244.855 157.098 245.399 156.766C245.945 156.432 246.592 156.264 247.338 156.264C247.957 156.264 248.506 156.379 248.983 156.607C249.464 156.833 249.847 157.152 250.132 157.567C250.417 157.978 250.579 158.458 250.619 159.009H248.899C248.829 158.641 248.663 158.334 248.401 158.089C248.143 157.84 247.797 157.716 247.362 157.716C246.994 157.716 246.671 157.815 246.393 158.014C246.114 158.21 245.897 158.491 245.742 158.859C245.589 159.227 245.513 159.668 245.513 160.182C245.513 160.702 245.589 161.15 245.742 161.524C245.894 161.895 246.108 162.182 246.383 162.384C246.661 162.583 246.988 162.683 247.362 162.683C247.628 162.683 247.864 162.633 248.073 162.533C248.285 162.431 248.463 162.283 248.605 162.091C248.748 161.899 248.846 161.665 248.899 161.39H250.619C250.576 161.93 250.417 162.409 250.141 162.827C249.866 163.241 249.492 163.566 249.018 163.801C248.544 164.033 247.987 164.149 247.347 164.149ZM255.428 164.149C254.682 164.149 254.035 163.985 253.489 163.657C252.942 163.329 252.517 162.87 252.216 162.28C251.918 161.69 251.768 161 251.768 160.212C251.768 159.423 251.918 158.732 252.216 158.138C252.517 157.545 252.942 157.085 253.489 156.756C254.035 156.428 254.682 156.264 255.428 156.264C256.173 156.264 256.82 156.428 257.366 156.756C257.913 157.085 258.336 157.545 258.634 158.138C258.936 158.732 259.087 159.423 259.087 160.212C259.087 161 258.936 161.69 258.634 162.28C258.336 162.87 257.913 163.329 257.366 163.657C256.82 163.985 256.173 164.149 255.428 164.149ZM255.437 162.707C255.842 162.707 256.18 162.596 256.452 162.374C256.723 162.149 256.926 161.847 257.058 161.469C257.194 161.092 257.262 160.671 257.262 160.207C257.262 159.739 257.194 159.317 257.058 158.939C256.926 158.558 256.723 158.254 256.452 158.029C256.18 157.804 255.842 157.691 255.437 157.691C255.023 157.691 254.678 157.804 254.403 158.029C254.132 158.254 253.928 158.558 253.792 158.939C253.659 159.317 253.593 159.739 253.593 160.207C253.593 160.671 253.659 161.092 253.792 161.469C253.928 161.847 254.132 162.149 254.403 162.374C254.678 162.596 255.023 162.707 255.437 162.707ZM263.945 164.149C263.199 164.149 262.553 163.985 262.006 163.657C261.459 163.329 261.035 162.87 260.733 162.28C260.435 161.69 260.286 161 260.286 160.212C260.286 159.423 260.435 158.732 260.733 158.138C261.035 157.545 261.459 157.085 262.006 156.756C262.553 156.428 263.199 156.264 263.945 156.264C264.691 156.264 265.337 156.428 265.884 156.756C266.431 157.085 266.853 157.545 267.152 158.138C267.453 158.732 267.604 159.423 267.604 160.212C267.604 161 267.453 161.69 267.152 162.28C266.853 162.87 266.431 163.329 265.884 163.657C265.337 163.985 264.691 164.149 263.945 164.149ZM263.955 162.707C264.359 162.707 264.697 162.596 264.969 162.374C265.241 162.149 265.443 161.847 265.576 161.469C265.712 161.092 265.78 160.671 265.78 160.207C265.78 159.739 265.712 159.317 265.576 158.939C265.443 158.558 265.241 158.254 264.969 158.029C264.697 157.804 264.359 157.691 263.955 157.691C263.541 157.691 263.196 157.804 262.921 158.029C262.649 158.254 262.445 158.558 262.309 158.939C262.177 159.317 262.111 159.739 262.111 160.207C262.111 160.671 262.177 161.092 262.309 161.469C262.445 161.847 262.649 162.149 262.921 162.374C263.196 162.596 263.541 162.707 263.955 162.707ZM269.132 166.864V156.364H270.902V157.626H271.006C271.099 157.441 271.23 157.244 271.399 157.035C271.568 156.823 271.796 156.642 272.085 156.493C272.373 156.34 272.741 156.264 273.189 156.264C273.778 156.264 274.31 156.415 274.784 156.717C275.262 157.015 275.64 157.457 275.918 158.044C276.2 158.627 276.341 159.343 276.341 160.192C276.341 161.03 276.203 161.743 275.928 162.33C275.653 162.916 275.278 163.364 274.804 163.672C274.33 163.98 273.793 164.134 273.194 164.134C272.756 164.134 272.393 164.061 272.105 163.915C271.816 163.77 271.584 163.594 271.409 163.388C271.236 163.18 271.102 162.982 271.006 162.797H270.931V166.864H269.132ZM270.897 160.182C270.897 160.676 270.966 161.108 271.105 161.479C271.248 161.851 271.452 162.141 271.717 162.349C271.985 162.555 272.31 162.658 272.691 162.658C273.089 162.658 273.422 162.552 273.691 162.339C273.959 162.124 274.161 161.831 274.297 161.46C274.436 161.085 274.506 160.659 274.506 160.182C274.506 159.708 274.438 159.287 274.302 158.919C274.166 158.551 273.964 158.263 273.696 158.054C273.427 157.845 273.092 157.741 272.691 157.741C272.307 157.741 271.98 157.842 271.712 158.044C271.444 158.246 271.24 158.53 271.1 158.894C270.965 159.259 270.897 159.688 270.897 160.182Z" fill="black"/>
</svg>
