<svg width="54" height="54" viewBox="0 0 54 54" fill="none" xmlns="http://www.w3.org/2000/svg">
<g id="play-circle">
<g id="Vector">
<path d="M21.375 37.125L37.125 27L21.375 16.875V37.125ZM27 49.5C23.8875 49.5 20.9625 48.909 18.225 47.727C15.4875 46.545 13.1062 44.9422 11.0813 42.9188C9.05625 40.8937 7.4535 38.5125 6.273 35.775C5.0925 33.0375 4.5015 30.1125 4.5 27C4.5 23.8875 5.091 20.9625 6.273 18.225C7.455 15.4875 9.05775 13.1062 11.0813 11.0813C13.1062 9.05625 15.4875 7.4535 18.225 6.273C20.9625 5.0925 23.8875 4.5015 27 4.5C30.1125 4.5 33.0375 5.091 35.775 6.273C38.5125 7.455 40.8937 9.05775 42.9188 11.0813C44.9438 13.1062 46.5472 15.4875 47.7292 18.225C48.9112 20.9625 49.5015 23.8875 49.5 27C49.5 30.1125 48.909 33.0375 47.727 35.775C46.545 38.5125 44.9422 40.8937 42.9188 42.9188C40.8937 44.9438 38.5125 46.5472 35.775 47.7292C33.0375 48.9112 30.1125 49.5015 27 49.5Z" fill="black"/>
<path d="M21.375 37.125L37.125 27L21.375 16.875V37.125Z" fill="#FF6262"/>
</g>
</g>
</svg>
