<svg width="36" height="37" viewBox="0 0 36 37" fill="none" xmlns="http://www.w3.org/2000/svg">
<g id="profile">
<g id="Group">
<path id="Vector" fill-rule="evenodd" clip-rule="evenodd" d="M24 14.25C24 15.8413 23.3679 17.3674 22.2426 18.4926C21.1174 19.6179 19.5913 20.25 18 20.25C16.4087 20.25 14.8826 19.6179 13.7574 18.4926C12.6321 17.3674 12 15.8413 12 14.25C12 12.6587 12.6321 11.1326 13.7574 10.0074C14.8826 8.88214 16.4087 8.25 18 8.25C19.5913 8.25 21.1174 8.88214 22.2426 10.0074C23.3679 11.1326 24 12.6587 24 14.25ZM21 14.25C21 15.0456 20.6839 15.8087 20.1213 16.3713C19.5587 16.9339 18.7956 17.25 18 17.25C17.2044 17.25 16.4413 16.9339 15.8787 16.3713C15.3161 15.8087 15 15.0456 15 14.25C15 13.4544 15.3161 12.6913 15.8787 12.1287C16.4413 11.5661 17.2044 11.25 18 11.25C18.7956 11.25 19.5587 11.5661 20.1213 12.1287C20.6839 12.6913 21 13.4544 21 14.25Z" fill="black"/>
<path id="Vector_2" fill-rule="evenodd" clip-rule="evenodd" d="M18 2.25C8.8875 2.25 1.5 9.6375 1.5 18.75C1.5 27.8625 8.8875 35.25 18 35.25C27.1125 35.25 34.5 27.8625 34.5 18.75C34.5 9.6375 27.1125 2.25 18 2.25ZM4.5 18.75C4.5 21.885 5.5695 24.771 7.362 27.063C8.62085 25.4098 10.2449 24.0701 12.1071 23.1485C13.9694 22.2268 16.0196 21.7482 18.0975 21.75C20.1485 21.7481 22.1729 22.2143 24.0164 23.1132C25.8599 24.0121 27.4739 25.3199 28.7355 26.937C30.0352 25.2324 30.9103 23.2428 31.2883 21.1329C31.6664 19.0229 31.5366 16.8533 30.9097 14.8035C30.2828 12.7537 29.1768 10.8826 27.6832 9.34506C26.1896 7.80754 24.3514 6.64779 22.3206 5.96176C20.2898 5.27574 18.1248 5.08316 16.0048 5.39996C13.8848 5.71676 11.8707 6.53384 10.1292 7.78358C8.38762 9.03332 6.96872 10.6798 5.98984 12.5868C5.01097 14.4938 4.50027 16.6065 4.5 18.75ZM18 32.25C14.9009 32.2547 11.8954 31.1885 9.492 29.232C10.4594 27.8471 11.747 26.7164 13.2453 25.936C14.7436 25.1557 16.4082 24.7488 18.0975 24.75C19.7657 24.7487 21.4102 25.1454 22.8944 25.9071C24.3785 26.6689 25.6595 27.7738 26.631 29.13C24.2089 31.1501 21.1539 32.2544 18 32.25Z" fill="black"/>
</g>
</g>
</svg>
