<svg width="25" height="25" viewBox="0 0 25 25" fill="none" xmlns="http://www.w3.org/2000/svg">
<g id="material-symbols:bookmark-added-rounded">
<g id="Vector">
<path fill-rule="evenodd" clip-rule="evenodd" d="M5.67706 21.1594C5.98956 21.3587 6.31942 21.3889 6.66665 21.25L12.5 18.75L18.3333 21.25C18.6805 21.3896 19.0104 21.3594 19.3229 21.1594C19.6354 20.9594 19.7916 20.6684 19.7916 20.2865V11.3542C19.3923 11.4063 19.0451 11.4323 18.75 11.4323C18.4548 11.4323 18.1076 11.4063 17.7083 11.3542C16.5097 11.1111 15.5156 10.5122 14.726 9.55729C13.9364 8.60243 13.5416 7.5 13.5416 6.25C13.5416 5.64306 13.6285 5.1007 13.8021 4.62292C13.9757 4.14514 14.2361 3.64584 14.5833 3.125H7.29165C6.71942 3.12431 6.22915 3.32813 5.82081 3.73646C5.41248 4.14479 5.20831 4.63542 5.20831 5.20833V20.2865C5.20831 20.6691 5.36456 20.9601 5.67706 21.1594Z" fill="#FD5454"/>
<path d="M18.5677 8.93229C18.4288 8.93229 18.2986 8.91077 18.1771 8.86771C18.0555 8.82465 17.9427 8.7507 17.8385 8.64584L16.3541 7.16146C16.1458 6.95313 16.0416 6.7059 16.0416 6.41979C16.0416 6.13368 16.1458 5.89479 16.3541 5.70313C16.5451 5.49479 16.7882 5.39063 17.0833 5.39063C17.3785 5.39063 17.6215 5.48611 17.8125 5.67708L18.5677 6.43229L21.5104 3.46354C21.7187 3.25521 21.9618 3.15104 22.2396 3.15104C22.5173 3.15104 22.7691 3.25521 22.9948 3.46354C23.1857 3.67188 23.2812 3.92361 23.2812 4.21875C23.2812 4.51389 23.1857 4.75695 22.9948 4.94792L19.2969 8.64584C19.1927 8.75 19.0798 8.82396 18.9583 8.86771C18.8368 8.91146 18.7066 8.93299 18.5677 8.93229Z" fill="#FD5454"/>
</g>
</g>
</svg>
