<svg width="25" height="25" viewBox="0 0 25 25" fill="none" xmlns="http://www.w3.org/2000/svg">
<g id="wpf:like">
<path id="Vector" d="M17.1817 3.73944C15.1664 3.73944 13.4443 5.17598 12.4981 6.16636C11.5519 5.17598 9.83367 3.73944 7.81925 3.73944C4.34713 3.73944 1.9231 6.15963 1.9231 9.62406C1.9231 13.4414 4.93367 15.9087 7.84617 18.2952C9.22117 19.4231 10.6442 20.5885 11.7356 21.8808C11.9192 22.0971 12.1885 22.2221 12.4712 22.2221H12.5269C12.8106 22.2221 13.0789 22.0962 13.2616 21.8808C14.3548 20.5885 15.7769 19.4221 17.1529 18.2952C20.0644 15.9096 23.0769 13.4423 23.0769 9.62406C23.0769 6.15963 20.6529 3.73944 17.1817 3.73944Z" fill="#FD5454"/>
</g>
</svg>
