<svg width="25" height="25" viewBox="0 0 25 25" fill="none" xmlns="http://www.w3.org/2000/svg">
<g id="iwwa:option">
<g id="Group">
<path id="Vector" d="M14.445 5.82189C14.4451 6.07739 14.3948 6.33041 14.2971 6.5665C14.1994 6.80258 14.0562 7.01711 13.8756 7.19784C13.695 7.37857 13.4805 7.52195 13.2445 7.6198C13.0085 7.71765 12.7555 7.76806 12.5 7.76814C12.2445 7.76822 11.9915 7.71798 11.7554 7.62028C11.5193 7.52258 11.3048 7.37933 11.124 7.19872C10.9433 7.01811 10.7999 6.80368 10.7021 6.56765C10.6042 6.33163 10.5538 6.07865 10.5537 5.82314C10.5536 5.30713 10.7584 4.81219 11.1232 4.44719C11.4879 4.0822 11.9827 3.87706 12.4987 3.87689C13.0148 3.87673 13.5097 4.08155 13.8747 4.44631C14.2397 4.81107 14.4448 5.30588 14.445 5.82189Z" fill="#FD5454"/>
<path id="Vector_2" d="M12.5 14.4444C13.5742 14.4444 14.445 13.5736 14.445 12.4994C14.445 11.4252 13.5742 10.5544 12.5 10.5544C11.4258 10.5544 10.555 11.4252 10.555 12.4994C10.555 13.5736 11.4258 14.4444 12.5 14.4444Z" fill="#FD5454"/>
<path id="Vector_3" d="M12.5 21.1232C13.5742 21.1232 14.445 20.2523 14.445 19.1782C14.445 18.104 13.5742 17.2332 12.5 17.2332C11.4258 17.2332 10.555 18.104 10.555 19.1782C10.555 20.2523 11.4258 21.1232 12.5 21.1232Z" fill="#FD5454"/>
</g>
</g>
</svg>
