<svg width="25" height="25" viewBox="0 0 25 25" fill="none" xmlns="http://www.w3.org/2000/svg">
<g id="material-symbols:share">
<path id="Vector" d="M17.75 22.9167C16.8819 22.9167 16.1441 22.6129 15.5365 22.0053C14.9288 21.3976 14.625 20.6598 14.625 19.7917C14.625 19.6702 14.6337 19.5441 14.651 19.4136C14.6684 19.283 14.6944 19.166 14.7292 19.0625L7.38542 14.7917C7.09028 15.0521 6.76042 15.2563 6.39583 15.4042C6.03125 15.5521 5.64931 15.6257 5.25 15.625C4.38194 15.625 3.6441 15.3212 3.03646 14.7136C2.42882 14.1059 2.125 13.3681 2.125 12.5C2.125 11.632 2.42882 10.8941 3.03646 10.2865C3.6441 9.67886 4.38194 9.37504 5.25 9.37504C5.64931 9.37504 6.03125 9.449 6.39583 9.59692C6.76042 9.74483 7.09028 9.94865 7.38542 10.2084L14.7292 5.93754C14.6944 5.83337 14.6684 5.71636 14.651 5.5865C14.6337 5.45664 14.625 5.3306 14.625 5.20837C14.625 4.34032 14.9288 3.60247 15.5365 2.99483C16.1441 2.38719 16.8819 2.08337 17.75 2.08337C18.6181 2.08337 19.3559 2.38719 19.9635 2.99483C20.5712 3.60247 20.875 4.34032 20.875 5.20837C20.875 6.07643 20.5712 6.81428 19.9635 7.42192C19.3559 8.02955 18.6181 8.33337 17.75 8.33337C17.3507 8.33337 16.9687 8.25976 16.6042 8.11254C16.2396 7.96532 15.9097 7.76115 15.6146 7.50004L8.27083 11.7709C8.30555 11.875 8.3316 11.9924 8.34896 12.123C8.36632 12.2535 8.375 12.3792 8.375 12.5C8.375 12.6216 8.36632 12.7476 8.34896 12.8782C8.3316 13.0087 8.30555 13.1257 8.27083 13.2292L15.6146 17.5C15.9097 17.2396 16.2396 17.0358 16.6042 16.8886C16.9687 16.7414 17.3507 16.6674 17.75 16.6667C18.6181 16.6667 19.3559 16.9705 19.9635 17.5782C20.5712 18.1858 20.875 18.9237 20.875 19.7917C20.875 20.6598 20.5712 21.3976 19.9635 22.0053C19.3559 22.6129 18.6181 22.9167 17.75 22.9167Z" fill="#FD5454"/>
</g>
</svg>
