<svg width="50" height="50" viewBox="0 0 50 50" fill="none" xmlns="http://www.w3.org/2000/svg">
<circle cx="25" cy="25" r="25" fill="#FFE1BA"/>
<path d="M16.8154 14.5006C16.6952 14.378 16.5521 14.2803 16.3941 14.213C16.2362 14.1457 16.0665 14.1103 15.8948 14.1086C15.7232 14.1069 15.5528 14.1391 15.3936 14.2033C15.2344 14.2674 15.0893 14.3624 14.9668 14.4826C13.5807 15.8607 12.4812 17.4995 11.7317 19.3047C10.9822 21.1098 10.5976 23.0455 10.6 25C10.5978 27.0296 11.0127 29.0379 11.819 30.9004C12.6253 32.7629 13.8058 34.4398 15.2872 35.827C15.5365 36.0575 15.8659 36.1817 16.2053 36.1733C16.5448 36.1649 16.8676 36.0246 17.1052 35.782C17.674 35.2132 17.6038 34.3078 17.0566 33.784C15.8677 32.651 14.9216 31.288 14.2758 29.778C13.63 28.2679 13.298 26.6423 13.3 25C13.3 21.6772 14.6338 18.664 16.7974 16.4716C17.3194 15.9406 17.3734 15.0586 16.8154 14.5006ZM19.9852 17.674C19.7481 17.4301 19.4241 17.2901 19.084 17.2847C18.7439 17.2793 18.4155 17.4089 18.1708 17.6452C17.1969 18.6063 16.4239 19.7515 15.8967 21.0142C15.3695 22.2768 15.0987 23.6317 15.1 25C15.0979 26.4468 15.4002 27.8778 15.9872 29.2001C16.5742 30.5224 17.4329 31.7064 18.5074 32.6752C18.7544 32.8935 19.076 33.0083 19.4054 32.9959C19.7348 32.9835 20.0469 32.8448 20.2768 32.6086C20.8672 32.0182 20.7574 31.0894 20.203 30.5674C19.4431 29.8531 18.8377 28.9904 18.4244 28.0328C18.0111 27.0752 17.7986 26.043 17.8 25C17.8 22.93 18.6226 21.0508 19.96 19.672C20.4748 19.1428 20.5594 18.2464 19.9852 17.674ZM30.0148 17.674C30.2519 17.4301 30.576 17.2901 30.9161 17.2847C31.2562 17.2793 31.5845 17.4089 31.8292 17.6452C32.8031 18.6063 33.5761 19.7515 34.1033 21.0142C34.6305 22.2768 34.9013 23.6317 34.9 25C34.9021 26.4468 34.5998 27.8778 34.0128 29.2001C33.4258 30.5224 32.5671 31.7064 31.4926 32.6752C31.2456 32.8935 30.924 33.0083 30.5946 32.9959C30.2652 32.9835 29.9531 32.8448 29.7232 32.6086C29.1328 32.0182 29.2426 31.0894 29.797 30.5674C30.5569 29.8531 31.1623 28.9904 31.5756 28.0328C31.9889 27.0752 32.2014 26.043 32.2 25C32.2 22.93 31.3774 21.0508 30.04 19.672C29.5252 19.1428 29.4406 18.2464 30.0148 17.674ZM33.1846 14.5024C33.3048 14.3798 33.4479 14.2821 33.6059 14.2148C33.7638 14.1475 33.9335 14.1121 34.1052 14.1104C34.2768 14.1087 34.4472 14.1409 34.6064 14.2051C34.7656 14.2692 34.9107 14.3642 35.0332 14.4844C36.4191 15.8622 37.5185 17.5008 38.2679 19.3056C39.0174 21.1104 39.4022 23.0458 39.4 25C39.4023 27.0296 38.9873 29.0379 38.181 30.9004C37.3747 32.7629 36.1942 34.4398 34.7128 35.827C34.4635 36.0575 34.1341 36.1817 33.7947 36.1733C33.4552 36.1649 33.1324 36.0246 32.8948 35.782C32.326 35.2132 32.3962 34.3078 32.9452 33.784C34.1338 32.6508 35.0795 31.2878 35.725 29.7778C36.3705 28.2677 36.7022 26.6422 36.7 25C36.7 21.6772 35.3662 18.664 33.2026 16.4716C32.6806 15.9406 32.6266 15.0586 33.1846 14.5006V14.5024ZM25 22.3C24.2839 22.3 23.5972 22.5845 23.0908 23.0908C22.5845 23.5972 22.3 24.2839 22.3 25C22.3 25.7161 22.5845 26.4029 23.0908 26.9092C23.5972 27.4156 24.2839 27.7 25 27.7C25.7161 27.7 26.4028 27.4156 26.9092 26.9092C27.4155 26.4029 27.7 25.7161 27.7 25C27.7 24.2839 27.4155 23.5972 26.9092 23.0908C26.4028 22.5845 25.7161 22.3 25 22.3Z" fill="black"/>
</svg>
