<svg width="50" height="50" viewBox="0 0 50 50" fill="none" xmlns="http://www.w3.org/2000/svg">
<circle cx="25" cy="25" r="25" fill="#FFE1BA"/>
<path d="M10.375 26.125H12.7307C13.2662 29.3155 16.0563 31.75 19.375 31.75C21.3741 31.75 22.9165 30.814 23.9099 29.5698C24.9032 28.3266 25.4567 26.8281 26.0192 25.4219C26.5818 24.0156 27.1532 22.7016 27.8474 21.8354C28.5415 20.9714 29.2446 20.5 30.625 20.5C33.0505 20.5 35.125 22.5171 35.125 25C35.125 27.4964 33.1214 29.5 30.625 29.5H29.5V31.75H30.625C33.9606 31.75 36.7337 29.3155 37.2693 26.125L39.625 26.125V23.875L37.2693 23.875C36.7292 20.6755 33.9167 18.25 30.625 18.25C28.6214 18.25 27.0869 19.186 26.0901 20.4303C25.0922 21.6734 24.5072 23.1719 23.9447 24.5781C23.3822 25.9844 22.8422 27.2984 22.1526 28.1646C21.4619 29.0297 20.7464 29.5 19.375 29.5C16.9101 29.5 14.875 27.4919 14.875 25C14.875 22.5036 16.8786 20.5 19.375 20.5H20.5V18.25H19.375C16.0394 18.25 13.2662 20.6845 12.7307 23.875H10.375V26.125Z" fill="black"/>
</svg>
