<svg width="50" height="50" viewBox="0 0 50 50" fill="none" xmlns="http://www.w3.org/2000/svg">
<circle cx="25" cy="25" r="25" fill="#FFE1BA"/>
<path d="M13 37C12.175 37 11.4685 36.706 10.8805 36.118C10.2925 35.53 9.999 34.824 10 34V16C10 15.175 10.294 14.4685 10.882 13.8805C11.47 13.2925 12.176 12.999 13 13H31C31.825 13 32.5315 13.294 33.1195 13.882C33.7075 14.47 34.001 15.176 34 16V22.75L38.725 18.025C38.95 17.8 39.2185 17.7435 39.5305 17.8555C39.8425 17.9675 39.999 18.199 40 18.55V31.45C40 31.8 39.8435 32.0315 39.5305 32.1445C39.2175 32.2575 38.949 32.201 38.725 31.975L34 27.25V34C34 34.825 33.706 35.5315 33.118 36.1195C32.53 36.7075 31.824 37.001 31 37H13ZM16.0375 31H27.9625C28.2875 31 28.519 30.8625 28.657 30.5875C28.795 30.3125 28.7635 30.05 28.5625 29.8L24.925 25.0375C24.775 24.8375 24.575 24.7375 24.325 24.7375C24.075 24.7375 23.875 24.8375 23.725 25.0375L20.875 28.75L19.15 26.5C19 26.3 18.8 26.2 18.55 26.2C18.3 26.2 18.1 26.3 17.95 26.5L15.4375 29.8C15.2375 30.05 15.206 30.3125 15.343 30.5875C15.48 30.8625 15.7115 31 16.0375 31Z" fill="black"/>
</svg>
