<svg width="50" height="50" viewBox="0 0 50 50" fill="none" xmlns="http://www.w3.org/2000/svg">
<circle cx="25" cy="25" r="25" fill="#FD5454"/>
<path d="M13.075 18.925L11.0125 17.9875C10.8125 17.8875 10.7125 17.725 10.7125 17.5C10.7125 17.275 10.8125 17.1125 11.0125 17.0125L13.075 16.075L14.0125 14.0125C14.1125 13.8125 14.275 13.7125 14.5 13.7125C14.725 13.7125 14.8875 13.8125 14.9875 14.0125L15.925 16.075L17.9875 17.0125C18.1875 17.1125 18.2875 17.275 18.2875 17.5C18.2875 17.725 18.1875 17.8875 17.9875 17.9875L15.925 18.925L14.9875 20.9875C14.8875 21.1875 14.725 21.2875 14.5 21.2875C14.275 21.2875 14.1125 21.1875 14.0125 20.9875L13.075 18.925ZM33.0625 15.4375L32.0125 14.95C31.8125 14.85 31.7125 14.7 31.7125 14.5C31.7125 14.3 31.8125 14.15 32.0125 14.05L33.0625 13.5625L33.55 12.5125C33.65 12.3125 33.8 12.2125 34 12.2125C34.2 12.2125 34.35 12.3125 34.45 12.5125L34.9375 13.5625L35.9875 14.05C36.1875 14.15 36.2875 14.3 36.2875 14.5C36.2875 14.7 36.1875 14.85 35.9875 14.95L34.9375 15.4375L34.45 16.4875C34.35 16.6875 34.2 16.7875 34 16.7875C33.8 16.7875 33.65 16.6875 33.55 16.4875L33.0625 15.4375ZM36.0625 21.4375L35.0125 20.95C34.8125 20.85 34.7125 20.7 34.7125 20.5C34.7125 20.3 34.8125 20.15 35.0125 20.05L36.0625 19.5625L36.55 18.5125C36.65 18.3125 36.8 18.2125 37 18.2125C37.2 18.2125 37.35 18.3125 37.45 18.5125L37.9375 19.5625L38.9875 20.05C39.1875 20.15 39.2875 20.3 39.2875 20.5C39.2875 20.7 39.1875 20.85 38.9875 20.95L37.9375 21.4375L37.45 22.4875C37.35 22.6875 37.2 22.7875 37 22.7875C36.8 22.7875 36.65 22.6875 36.55 22.4875L36.0625 21.4375ZM25 29.5C23.75 29.5 22.6875 29.0625 21.8125 28.1875C20.9375 27.3125 20.5 26.25 20.5 25V16C20.5 14.75 20.9375 13.6875 21.8125 12.8125C22.6875 11.9375 23.75 11.5 25 11.5C26.25 11.5 27.3125 11.9375 28.1875 12.8125C29.0625 13.6875 29.5 14.75 29.5 16V25C29.5 26.25 29.0625 27.3125 28.1875 28.1875C27.3125 29.0625 26.25 29.5 25 29.5ZM25 26.5C25.425 26.5 25.7815 26.356 26.0695 26.068C26.3575 25.78 26.501 25.424 26.5 25V16C26.5 15.575 26.356 15.2185 26.068 14.9305C25.78 14.6425 25.424 14.499 25 14.5C24.575 14.5 24.2185 14.644 23.9305 14.932C23.6425 15.22 23.499 15.576 23.5 16V25C23.5 25.425 23.644 25.7815 23.932 26.0695C24.22 26.3575 24.576 26.501 25 26.5ZM25 40C24.575 40 24.2185 39.856 23.9305 39.568C23.6425 39.28 23.499 38.924 23.5 38.5V35.3875C21.175 35.0625 19.2 34.0875 17.575 32.4625C15.95 30.8375 14.9625 28.8875 14.6125 26.6125C14.5375 26.1875 14.65 25.8125 14.95 25.4875C15.25 25.1625 15.65 25 16.15 25C16.5 25 16.8125 25.1315 17.0875 25.3945C17.3625 25.6575 17.5375 25.976 17.6125 26.35C17.9375 28.1 18.7875 29.5625 20.1625 30.7375C21.5375 31.9125 23.15 32.5 25 32.5C26.85 32.5 28.4625 31.9125 29.8375 30.7375C31.2125 29.5625 32.0625 28.1 32.3875 26.35C32.4625 25.975 32.6435 25.656 32.9305 25.393C33.2175 25.13 33.5365 24.999 33.8875 25C34.3625 25 34.75 25.1625 35.05 25.4875C35.35 25.8125 35.4625 26.1875 35.3875 26.6125C35.0375 28.8875 34.05 30.8375 32.425 32.4625C30.8 34.0875 28.825 35.0625 26.5 35.3875V38.5C26.5 38.925 26.356 39.2815 26.068 39.5695C25.78 39.8575 25.424 40.001 25 40Z" fill="black"/>
</svg>
