<svg width="53" height="25" viewBox="0 0 53 25" fill="none" xmlns="http://www.w3.org/2000/svg">
<g id="material-symbols:communication" clip-path="url(#clip0_0_311)">
<path id="Vector" d="M21.875 17.6136L19.3892 15.1278C19.7049 14.6938 19.9219 14.2495 20.0402 13.795C20.1586 13.3404 20.2178 12.8772 20.2178 12.4053C20.2178 11.9318 20.1586 11.4678 20.0402 11.0133C19.9219 10.5587 19.7049 10.1349 19.3892 9.74196L21.875 7.19697C22.5063 7.94666 22.9798 8.77526 23.2955 9.68277C23.6111 10.5903 23.7689 11.4978 23.7689 12.4053C23.7689 13.3128 23.6111 14.2109 23.2955 15.0994C22.9798 15.988 22.5063 16.8261 21.875 17.6136ZM26.9058 22.7036L24.3608 20.1586C25.3472 19.0538 26.0874 17.8307 26.5814 16.4891C27.0754 15.1476 27.3217 13.7863 27.3201 12.4053C27.3201 11.0243 27.0739 9.6733 26.5814 8.35228C26.089 7.03125 25.3488 5.81756 24.3608 4.71118L26.9058 2.1662C28.2473 3.62611 29.244 5.23438 29.8958 6.99101C30.5477 8.74764 30.8728 10.5524 30.8712 12.4053C30.8712 14.2598 30.5453 16.0748 29.8935 17.8504C29.2416 19.6259 28.2457 21.2437 26.9058 22.7036ZM9.56439 14.7727C8.26231 14.7727 7.14725 14.3087 6.21922 13.3807C5.29119 12.4527 4.82797 11.3384 4.82954 10.0379C4.82954 8.7358 5.29356 7.62074 6.22159 6.69271C7.14962 5.76468 8.26389 5.30146 9.56439 5.30304C10.8665 5.30304 11.9815 5.76705 12.9096 6.69508C13.8376 7.62311 14.3008 8.73738 14.2992 10.0379C14.2992 11.34 13.8352 12.455 12.9072 13.3831C11.9792 14.3111 10.8649 14.7743 9.56439 14.7727ZM0.094696 24.2424V22.8812C0.094696 21.9342 0.351167 21.0661 0.864109 20.277C1.37705 19.4879 2.08728 18.896 2.99479 18.5014C4.02067 18.0674 5.07655 17.732 6.1624 17.4953C7.24826 17.2585 8.38226 17.1402 9.56439 17.1402C10.7481 17.1402 11.8829 17.2585 12.9688 17.4953C14.0546 17.732 15.1097 18.0674 16.134 18.5014C17.0415 18.896 17.7517 19.4879 18.2647 20.277C18.7776 21.0661 19.0341 21.9342 19.0341 22.8812V24.2424H0.094696ZM42.7083 14.7727C41.4062 14.7727 40.2912 14.3087 39.3632 13.3807C38.4351 12.4527 37.9719 11.3384 37.9735 10.0379C37.9735 8.7358 38.4375 7.62074 39.3655 6.69271C40.2936 5.76468 41.4078 5.30146 42.7083 5.30304C44.0104 5.30304 45.1255 5.76705 46.0535 6.69508C46.9815 7.62311 47.4448 8.73738 47.4432 10.0379C47.4432 11.34 46.9792 12.455 46.0511 13.3831C45.1231 14.3111 44.0088 14.7743 42.7083 14.7727ZM33.2386 24.2424V22.8812C33.2386 21.9342 33.4951 21.0661 34.008 20.277C34.521 19.4879 35.2312 18.896 36.1387 18.5014C37.1646 18.0674 38.2197 17.732 39.304 17.4953C40.3883 17.2585 41.523 17.1402 42.7083 17.1402C43.892 17.1402 45.026 17.2585 46.1103 17.4953C47.1946 17.732 48.2505 18.0674 49.2779 18.5014C50.1854 18.896 50.8957 19.4879 51.4086 20.277C51.9216 21.0661 52.178 21.9342 52.178 22.8812V24.2424H33.2386Z" fill="#FD5454"/>
</g>
<defs>
<clipPath id="clip0_0_311">
<rect width="52.2727" height="25" fill="white"/>
</clipPath>
</defs>
</svg>
