<svg width="25" height="25" viewBox="0 0 25 25" fill="none" xmlns="http://www.w3.org/2000/svg">
<g id="flat-color-icons:idea">
<path id="Vector" d="M12.5 21.875C18.2529 21.875 22.9166 17.2113 22.9166 11.4583C22.9166 5.70536 18.2529 1.04166 12.5 1.04166C6.74701 1.04166 2.08331 5.70536 2.08331 11.4583C2.08331 17.2113 6.74701 21.875 12.5 21.875Z" fill="#FFF59D"/>
<path id="Vector_2" d="M19.2708 11.4583C19.2708 7.44791 15.8333 4.27083 11.7187 4.73958C8.59373 5.10416 6.09373 7.60416 5.78123 10.7292C5.52081 13.125 6.5104 15.2604 8.17706 16.6146C8.90623 17.2396 9.37498 18.125 9.37498 19.1146V19.2708H15.625V19.2187C15.625 18.2812 16.0416 17.3437 16.7708 16.7187C18.2812 15.4687 19.2708 13.5937 19.2708 11.4583Z" fill="#FBC02D"/>
<path id="Vector_3" d="M15.9375 10.5208L14.375 9.47916C14.2188 9.37499 13.9583 9.37499 13.8021 9.47916L12.5 10.3125L11.25 9.47916C11.0938 9.37499 10.8333 9.37499 10.6771 9.47916L9.11458 10.5208C9.01042 10.625 8.90625 10.7292 8.90625 10.8854C8.90625 11.0417 8.90625 11.1979 9.01042 11.3021L10.9896 13.75V19.2708H12.0312V13.5417C12.0312 13.4375 11.9792 13.3333 11.9271 13.2292L10.2083 11.0937L10.9896 10.5729L12.2396 11.4062C12.3958 11.5104 12.6562 11.5104 12.8125 11.4062L14.0625 10.5729L14.8437 11.0937L13.125 13.2292C13.0729 13.3333 13.0208 13.4375 13.0208 13.5417V19.2708H14.0625V13.75L16.0417 11.3021C16.1458 11.1979 16.1979 11.0417 16.1458 10.8854C16.0937 10.7292 16.0417 10.5729 15.9375 10.5208Z" fill="#FFF59D"/>
<path id="Vector_4" d="M12.5 24.4792C13.3629 24.4792 14.0625 23.7796 14.0625 22.9167C14.0625 22.0537 13.3629 21.3542 12.5 21.3542C11.6371 21.3542 10.9375 22.0537 10.9375 22.9167C10.9375 23.7796 11.6371 24.4792 12.5 24.4792Z" fill="#5C6BC0"/>
<path id="Vector_5" d="M13.5417 23.4375H11.4583C10.3125 23.4375 9.375 22.5 9.375 21.3542V18.75H15.625V21.3542C15.625 22.5 14.6875 23.4375 13.5417 23.4375Z" fill="#9FA8DA"/>
<path id="Vector_6" d="M15.625 21.3542L9.58333 22.1875C9.73958 22.5521 10.0521 22.9167 10.4167 23.125L15.3125 22.4479C15.5208 22.1354 15.625 21.7708 15.625 21.3542ZM9.375 20.1563V21.1979L15.625 20.3125V19.2708L9.375 20.1563Z" fill="#5C6BC0"/>
</g>
</svg>
