<svg width="123" height="25" viewBox="0 0 123 25" fill="none" xmlns="http://www.w3.org/2000/svg">
<path d="M24.2188 9.84375H15.2734L12.5 1.17188L9.72656 9.84375H0.78125L8.00781 15.1953L5.27344 23.8281L12.5 18.4766L19.7266 23.8281L16.9531 15.1562L24.2188 9.84375Z" fill="#FFCE31"/>
<path d="M49.2188 9.84375H40.2734L37.5 1.17188L34.7266 9.84375H25.7812L33.0078 15.1953L30.2734 23.8281L37.5 18.4766L44.7266 23.8281L41.9531 15.1562L49.2188 9.84375Z" fill="#FFCE31"/>
<path d="M73.2188 9.84375H64.2734L61.5 1.17188L58.7266 9.84375H49.7812L57.0078 15.1953L54.2734 23.8281L61.5 18.4766L68.7266 23.8281L65.9531 15.1562L73.2188 9.84375Z" fill="#FFCE31"/>
<path d="M97.2188 9.84375H88.2734L85.5 1.17188L82.7266 9.84375H73.7812L81.0078 15.1953L78.2734 23.8281L85.5 18.4766L92.7266 23.8281L89.9531 15.1562L97.2188 9.84375Z" fill="#FFCE31"/>
<path d="M122.219 9.84375H113.273L110.5 1.17188L107.727 9.84375H98.7812L106.008 15.1953L103.273 23.8281L110.5 18.4766L117.727 23.8281L114.953 15.1562L122.219 9.84375Z" fill="#FFCE31"/>
</svg>
